<svg xmlns="http://www.w3.org/2000/svg" viewBox="0 0 40 40" fill="none">
  <defs>
    <linearGradient id="g1" x1="0" y1="0" x2="40" y2="40" gradientUnits="userSpaceOnUse">
      <stop offset="0%" stop-color="#8b5cf6"/>
      <stop offset="100%" stop-color="#06b6d4"/>
    </linearGradient>
    <linearGradient id="g2" x1="10" y1="8" x2="30" y2="32" gradientUnits="userSpaceOnUse">
      <stop offset="0%" stop-color="#c4b5fd"/>
      <stop offset="100%" stop-color="#67e8f9"/>
    </linearGradient>
  </defs>
  <rect width="40" height="40" rx="10" fill="url(#g1)"/>
  <!-- Brain/sync icon: two curved arcs with nodes -->
  <circle cx="14" cy="16" r="2.2" fill="white" opacity="0.95"/>
  <circle cx="26" cy="16" r="2.2" fill="white" opacity="0.95"/>
  <circle cx="20" cy="26" r="2.2" fill="white" opacity="0.95"/>
  <!-- Connection lines -->
  <path d="M16 17 L18.5 24.5" stroke="url(#g2)" stroke-width="1.6" stroke-linecap="round"/>
  <path d="M24 17 L21.5 24.5" stroke="url(#g2)" stroke-width="1.6" stroke-linecap="round"/>
  <path d="M16.2 15.5 L23.8 15.5" stroke="url(#g2)" stroke-width="1.6" stroke-linecap="round"/>
  <!-- Sync arrows -->
  <path d="M28 22 C30 24, 30 28, 26 29" stroke="white" stroke-width="1.2" stroke-linecap="round" fill="none" opacity="0.6"/>
  <path d="M26.5 28 L26 30 L28 29" stroke="white" stroke-width="1" stroke-linecap="round" stroke-linejoin="round" fill="none" opacity="0.6"/>
  <path d="M12 22 C10 24, 10 28, 14 29" stroke="white" stroke-width="1.2" stroke-linecap="round" fill="none" opacity="0.6"/>
  <path d="M13.5 28 L14 30 L12 29" stroke="white" stroke-width="1" stroke-linecap="round" stroke-linejoin="round" fill="none" opacity="0.6"/>
</svg>
